# generated from PmQm by Jehee Lee
:FULLY-SPECIFIED
:DEGREES
344
root 1.85263 25.7089 -17.6042 165.283 10.2073 -175.511
RightUpLeg -57.4939 -0.430021 0.251369
RightLeg 79.8102 3.27189 19.9547
RightFoot -15.8294 0.139567 6.30086
RightToes -0.000541893 -0.000659172 -0.000493268
Spine 13.785 0.0589439 3.0645
Spine1 27.8887 -0.582839 5.35159
HEad -3.08888 8.69591 -10.663
LeftShoulder1 -3.88251e-019 -0 -3.92111e-022
LeftArm -30.9599 -7.36306 -84.6758
LeftForeArm 28.7557 2.01088 1.95334
LeftHand -0.895988 -4.59861 10.6836
RightShoulder 7.45443e-017 -2.42657e-020 1.96277e-018
RightArm -8.40147 -3.63191 70.7427
RightForeArm -23.3604 20.3759 7.13863
RightHand -5.06486 19.0828 -23.9989
LeftUpLeg -57.7489 -3.3949 11.3446
LeftLeg 82.1234 -1.41379 -10.9429
LeftFoot -13.12 0.040617 -2.44707
LeftToes 3.91355e-005 3.11907e-005 -4.10385e-006
345
root 1.8454 25.7969 -17.803 166.972 10.2132 -175.166
RightUpLeg -58.7432 0.10006 0.585246
RightLeg 79.7897 3.36747 20.4912
RightFoot -15.6593 0.0980266 5.41416
RightToes -0.000541893 -0.000659172 -0.000493268
Spine 13.8162 0.01074510002 3.22096
Spine1 27.9561 -0.734897 5.56933
HEad -2.75114 8.8563 -10.7179
LeftShoulder1 -3.88251e-019 -0 -3.92111e-022
LeftArm -31.2096 -6.93183 -85.0892
LeftForeArm 24.5396 2.09838 2.07799
LeftHand -0.945984 -4.7262 11.1257
RightShoulder 7.45443e-017 -2.42657e-020 1.96277e-018
RightArm -7.37227 -4.09256 70.8371
RightForeArm -24.3198 21.3333 6.77321
RightHand -5.83572 19.5078 -27.0173
LeftUpLeg -59.2231 -3.77201 11.5309
LeftLeg 82.2688 -1.13873 -8.55385
LeftFoot -13.1238 0.039125 -2.54256
LeftToes 3.91355e-005 3.11907e-005 -4.10385e-006
346
root 1.85117 25.9244 -18.0112 169.07 10.0623 -174.919
RightUpLeg -60.2603 0.732994 0.714352
RightLeg 79.3167 3.46063 19.9935
RightFoot -14.4022 0.0158212 4.22849
RightToes -0.000541893 -0.000659172 -0.000493268
Spine 13.801 -0.0957645 3.31567
Spine1 27.9298 -0.999568 5.62271
HEad -3.03358 8.90683 -10.8535
LeftShoulder1 -3.88251e-019 -0 -3.92111e-022
LeftArm -31.0777 -6.69592 -85.373
LeftForeArm 23.6581 2.13323 1.77956
LeftHand -0.964001 -4.83147 11.2202
RightShoulder 7.45443e-017 -2.42657e-020 1.96277e-018
RightArm -7.2636 -4.8162 70.9515
RightForeArm -24.5934 22.5882 6.35188
RightHand -6.20988 19.7314 -28.4135
LeftUpLeg -61.0866 -4.07146 11.3932
LeftLeg 82.2801 -0.825272 -5.50059
LeftFoot -12.9224 0.058646 -1.37369
LeftToes 3.91355e-005 3.11907e-005 -4.10385e-006
347
root 1.86563 26.1129 -18.2344 171.563 9.5721 -174.749
RightUpLeg -62.0654 1.25355 0.548052
RightLeg 78.6398 3.48544 18.7649
RightFoot -13.0798 -0.0404761 3.21636
RightToes -0.000541893 -0.000659172 -0.000493268
Spine 13.7373 -0.285302 3.36364
Spine1 27.807 -1.41724 5.6515
HEad -3.7866 8.69301 -10.9129
LeftShoulder1 -3.88251e-019 -0 -3.92111e-022
LeftArm -30.6916 -6.87163 -85.4917
LeftForeArm 25.3637 1.64567 1.29194
LeftHand -0.958175 -4.93845 11.0452
RightShoulder 7.45443e-017 -2.42657e-020 1.96277e-018
RightArm -7.17475 -5.59964 70.7952
RightForeArm -24.7228 23.871 6.26664
RightHand -6.31655 19.748 -28.8559
LeftUpLeg -63.1435 -4.85444 11.5684
LeftLeg 81.8976 -0.675994 -3.75937
LeftFoot -12.9906 0.0619828 -1.11152
LeftToes 3.91355e-005 3.11907e-005 -4.10385e-006
348
root 1.87681 26.3318 -18.5481 174.506 8.90369 -174.743
RightUpLeg -64.2956 1.61864 -0.00217807
RightLeg 78.2852 3.41418 17.7363
RightFoot -13.2136 -0.039983 3.0509
RightToes -0.000541893 -0.000659172 -0.000493268
Spine 13.4974 -0.500261 3.38781
Spine1 27.3342 -1.86009 5.74422
HEad -4.76859 8.29166 -10.861
LeftShoulder1 -3.88251e-019 -0 -3.92111e-022
LeftArm -30.3721 -7.25113 -85.6678
LeftForeArm 26.1986 0.719069 0.944992
LeftHand -0.925428 -5.05395 10.5681
RightShoulder 7.45443e-017 -2.42657e-020 1.96277e-018
RightArm -6.4415 -6.36762 70.4062
RightForeArm -25.1734 24.6043 6.42708
RightHand -6.45807 19.7185 -29.4991
LeftUpLeg -65.4086 -5.87829 12.0982
LeftLeg 81.3211 -0.674628 -3.41512
LeftFoot -13.6129 0.0241547 -2.8399
LeftToes 3.91355e-005 3.11907e-005 -4.10385e-006
349
root 1.89795 26.6054 -18.9601 177.874 8.33934 -175.087
RightUpLeg -66.7603 1.7108 -0.886857
RightLeg 77.9194 3.42333 17.1694
RightFoot -14.0852 -0.00281005 3.85624
RightToes -0.000541893 -0.000659172 -0.000493268
Spine 13.0669 -0.644932 3.31991
Spine1 26.4857 -2.13036 5.69799
HEad -6.01533 7.72037 -10.8179
LeftShoulder1 -3.88251e-019 -0 -3.92111e-022
LeftArm -30.2752 -7.62263 -85.9828
LeftForeArm 25.3005 0.0313646 0.865619
LeftHand -0.897681 -5.10379 10.216
RightShoulder 7.45443e-017 -2.42657e-020 1.96277e-018
RightArm -5.65198 -6.99961 70.3108
RightForeArm -25.4468 24.2594 6.3366
RightHand -6.73415 19.9576 -30.4104
LeftUpLeg -67.8317 -6.37709 12.2097
LeftLeg 80.5936 -0.679403 -3.11258
LeftFoot -14.2108 -0.021332 -4.24454
LeftToes 3.91355e-005 3.11907e-005 -4.10385e-006
350
root 1.94984 26.9923 -19.4391 -178.71 7.99239 -175.605
RightUpLeg -68.8234 1.67745 -1.75145
RightLeg 77.0505 3.58559 16.6289
RightFoot -14.5396 0.0398328 4.9566
RightToes -0.000541893 -0.000659172 -0.000493268
Spine 12.641 -0.698044 3.1981
Spine1 25.6462 -2.21134 5.51722
HEad -7.61919 6.92596 -10.8702
LeftShoulder1 -3.88251e-019 -0 -3.92111e-022
LeftArm -30.2214 -8.14782 -86.2755
LeftForeArm 23.974 -0.326173 0.966971
LeftHand -0.913042 -5.23495 10.2637
RightShoulder 7.45443e-017 -2.42657e-020 1.96277e-018
RightArm -6.38882 -6.99817 70.5894
RightForeArm -24.371 22.5941 6.36107
RightHand -6.96986 20.2458 -31.0761
LeftUpLeg -69.8571 -6.39885 11.8986
LeftLeg 79.5266 -0.654656 -2.5477
LeftFoot -14.4749 -0.0257216 -4.10988
LeftToes 3.91355e-005 3.11907e-005 -4.10385e-006
351
root 2.03761 27.4751 -20.0025 -175.765 7.78639 -175.845
RightUpLeg -69.9287 2.00128 -2.27701
RightLeg 75.8808 3.75179 15.7858
RightFoot -14.8849 0.0708419 5.55312
RightToes -0.000541893 -0.000659172 -0.000493268
Spine 12.3447 -0.735025 3.18895
Spine1 25.0569 -2.28133 5.5326
HEad -9.17877 6.18285 -11.0528
LeftShoulder1 -3.88251e-019 -0 -3.92111e-022
LeftArm -30.1025 -9.00114 -86.4167
LeftForeArm 22.974 0.14438 1.18981
LeftHand -0.93561 -5.60236 10.1775
RightShoulder 7.45443e-017 -2.42657e-020 1.96277e-018
RightArm -10.2014 -5.87723 70.7493
RightForeArm -20.155 19.3656 7.4322
RightHand -6.77462 19.969 -30.5694
LeftUpLeg -70.9216 -6.54315 11.9559
LeftLeg 78.2637 -0.622152 -2.01784
LeftFoot -14.9027 -0.0292224 -3.80816
LeftToes 3.91355e-005 3.11907e-005 -4.10385e-006
352
root 2.15519 28.0145 -20.6272 -173.567 7.56747 -175.734
RightUpLeg -69.9214 2.74858 -2.50409
RightLeg 74.5861 3.85158 14.678
RightFoot -15.4003 0.0904606 5.50024
RightToes -0.000541893 -0.000659172 -0.000493268
Spine 12.1536 -0.812946 3.31251
Spine1 24.6663 -2.45314 5.78391
HEad -10.0172 5.87117 -11.2961
LeftShoulder1 -3.88251e-019 -0 -3.92111e-022
LeftArm -29.9912 -9.95566 -86.394
LeftForeArm 22.7314 1.07166 1.35491
LeftHand -0.92235 -5.88274 9.8022
RightShoulder 7.45443e-017 -2.42657e-020 1.96277e-018
RightArm -16.6149 -3.81641 70.7708
RightForeArm -12.6744 14.7329 8.77733
RightHand -5.77943 18.8117 -27.4937
LeftUpLeg -70.9383 -7.04062 12.4914
LeftLeg 76.9731 -0.543767 -1.37102
LeftFoot -15.6448 -0.0533511 -3.91248
LeftToes 3.91355e-005 3.11907e-005 -4.10385e-006
353
root 2.28917 28.6212 -21.2228 -171.997 7.32883 -175.603
RightUpLeg -69.0478 3.51223 -2.62507
RightLeg 72.947 3.9977 13.5954
RightFoot -15.7679 0.0974443 5.28482
RightToes -0.000541893 -0.000659172 -0.000493268
Spine 12.0017 -0.871144 3.39626
Spine1 24.3495 -2.57638 5.94419
HEad -9.97208 5.8896 -11.3272
LeftShoulder1 -3.88251e-019 -0 -3.92111e-022
LeftArm -29.9541 -10.601 -86.2462
LeftForeArm 23.2066 1.36698 1.32608
LeftHand -0.905652 -5.84509 9.66237
RightShoulder 7.45443e-017 -2.42657e-020 1.96277e-018
RightArm -21.5531 -1.7192 71.1979
RightForeArm -6.66178 10.6306 8.5588
RightHand -4.16095 16.9095 -21.7163
LeftUpLeg -70.1335 -7.56337 12.926
LeftLeg 75.4026 -0.43323 -0.695637
LeftFoot -16.2921 -0.0696407 -3.86989
LeftToes 3.91355e-005 3.11907e-005 -4.10385e-006
